# xmcd
#
# Track frame offsets:
#	150
#	20290
#	55135
#	81920
#	108445
#	130850
#	188945
#	203975
#	222300
#	235445
#
# Disc length: 3479 seconds
#
# Revision: 0
# Processed by: cddbd v1.5.2PL0 Copyright (c) Steve Scherf et al.
# Submitted via: EasyCDDAExtractor 9.0.0.1
#
DISCID=8d0d950a
DTITLE=Ozzy Osbourne - Atlanta 18-05-96 Disc 1
DYEAR=1996
DGENRE=Hard Rock
TTITLE0=Perry Mason
TTITLE1=No More Tears
TTITLE2=Flying High Again
TTITLE3=I Just Want You
TTITLE4=I Don't Want to Change The World
TTITLE5=Suicide Solution
TTITLE6=Sabbath Bloody Sabbath
TTITLE7=Iron Man
TTITLE8=Sweet Leaf
TTITLE9=Children Of The Grave
EXTD=
EXTT0=
EXTT1=
EXTT2=
EXTT3=
EXTT4=
EXTT5=
EXTT6=
EXTT7=
EXTT8=
EXTT9=
PLAYORDER=
